<?xml version="1.0" standalone="no"?>
<!DOCTYPE svg PUBLIC "-//W3C//DTD SVG 20010904//EN"
 "http://www.w3.org/TR/2001/REC-SVG-20010904/DTD/svg10.dtd">
<svg version="1.0" xmlns="http://www.w3.org/2000/svg"
 width="100.000000pt" height="100.000000pt" viewBox="0 0 100.000000 100.000000"
 preserveAspectRatio="xMidYMid meet">
<metadata>
Created by potrace 1.14, written by Peter Selinger 2001-2017
</metadata>
<g transform="translate(0.000000,100.000000) scale(0.100000,-0.100000)"
fill="#000000" stroke="none">
<path d="M415 919 c-33 -10 -70 -24 -82 -30 -35 -18 -55 -72 -52 -140 2 -45
-1 -62 -14 -72 -28 -22 -26 -85 6 -119 19 -21 57 -90 57 -104 0 -3 -51 -29
-112 -58 -161 -76 -184 -106 -187 -244 -4 -133 -46 -122 469 -122 511 0 470
-10 470 112 0 142 -26 176 -188 254 -94 45 -113 58 -107 72 4 9 12 29 17 45 5
15 14 27 19 27 15 0 39 58 39 94 0 22 -7 40 -18 48 -10 7 -21 23 -24 35 -5 17
-1 23 17 25 23 3 23 4 10 42 -44 126 -177 182 -320 135z"/>
</g>
</svg>
