<?xml version="1.0" standalone="no"?>
<!DOCTYPE svg PUBLIC "-//W3C//DTD SVG 20010904//EN"
 "http://www.w3.org/TR/2001/REC-SVG-20010904/DTD/svg10.dtd">
<svg version="1.0" xmlns="http://www.w3.org/2000/svg"
 width="912.000000pt" height="912.000000pt" viewBox="0 0 912.000000 912.000000"
 preserveAspectRatio="xMidYMid meet">
<metadata>
Created by potrace 1.11, written by Peter Selinger 2001-2013
</metadata>
<g transform="translate(0.000000,912.000000) scale(0.100000,-0.100000)"
fill="#000000" stroke="none">
<path d="M4320 8814 c-407 -34 -643 -75 -954 -165 -893 -258 -1698 -824 -2249
-1581 -401 -550 -662 -1182 -766 -1853 -38 -246 -46 -356 -46 -655 0 -452 50
-808 171 -1211 205 -688 563 -1289 1074 -1799 642 -642 1442 -1052 2331 -1194
265 -43 371 -51 679 -51 308 0 414 8 679 51 1284 205 2402 988 3042 2130 228
407 393 872 473 1332 49 279 60 416 60 742 0 326 -11 463 -60 742 -204 1173
-906 2218 -1921 2860 -545 346 -1147 556 -1813 633 -127 15 -597 28 -700 19z
m482 -1714 c201 -34 390 -110 568 -227 112 -75 308 -271 383 -383 331 -502
331 -1118 0 -1620 -75 -112 -271 -308 -383 -383 -502 -331 -1118 -331 -1620 0
-112 75 -308 271 -383 383 -331 502 -331 1118 0 1620 75 112 271 308 384 383
316 209 690 290 1051 227z m-855 -3223 c190 -77 379 -111 613 -111 234 0 423
34 613 111 l92 37 340 4 c280 2 358 0 440 -13 267 -45 510 -169 700 -360 191
-191 315 -432 360 -702 13 -78 16 -144 13 -290 -4 -165 -7 -195 -27 -245 -47
-120 -157 -231 -279 -280 l-57 -23 -2195 0 -2195 0 -57 23 c-122 49 -232 160
-279 280 -20 50 -23 80 -27 245 -6 265 25 428 117 632 143 314 455 582 796
684 152 45 210 50 585 47 l355 -2 92 -37z"/>
</g>
</svg>
